name Walk2.mot
datacolumns 19
datarows 22
range 2.46400000 2.48500000
endheader

                time	   L_ground_force_vx	   L_ground_force_vy	   L_ground_force_vz	   L_ground_force_px	   L_ground_force_py	   L_ground_force_pz	   R_ground_force_vx	   R_ground_force_vy	   R_ground_force_vz	   R_ground_force_px	   R_ground_force_py	   R_ground_force_pz	   L_ground_torque_x	   L_ground_torque_y	   L_ground_torque_z	   R_ground_torque_x	   R_ground_torque_y	   R_ground_torque_z	
          2.46400000	          0.00000000	          0.00000000	         -0.00000000	         -0.00000000	          0.00000000	         -0.00000000	          3.08653217	         15.36203801	          1.63120696	          0.12472425	          0.00000000	          0.03986097	          0.00000000	          0.00000000	          0.00000000	          0.00000000	         -0.07876867	          0.00000000	
          2.46500000	          0.00000000	          0.00000000	         -0.00000000	         -0.00000000	          0.00000000	         -0.00000000	          2.56096190	         13.49386784	          1.55321118	          0.11887877	          0.00000000	          0.03795765	          0.00000000	          0.00000000	          0.00000000	          0.00000000	         -0.07393362	          0.00000000	
          2.46600000	          0.00000000	          0.00000000	         -0.00000000	         -0.00000000	          0.00000000	         -0.00000000	          2.07040051	         11.73354709	          1.47597770	          0.11308108	          0.00000000	          0.03607272	          0.00000000	          0.00000000	          0.00000000	          0.00000000	         -0.06923029	          0.00000000	
          2.46700000	          0.00000000	          0.00000000	         -0.00000000	         -0.00000000	          0.00000000	         -0.00000000	          1.61372514	         10.07855780	          1.39973356	          0.10734903	          0.00000000	          0.03421174	          0.00000000	          0.00000000	          0.00000000	          0.00000000	         -0.06466525	          0.00000000	
          2.46800000	          0.00000000	          0.00000000	         -0.00000000	         -0.00000000	          0.00000000	         -0.00000000	          1.18978032	          8.52619806	          1.32468275	          0.10169869	          0.00000000	          0.03237971	          0.00000000	          0.00000000	          0.00000000	          0.00000000	         -0.06024400	          0.00000000	
          2.46900000	          0.00000000	          0.00000000	         -0.00000000	         -0.00000000	          0.00000000	         -0.00000000	          0.79738515	          7.07360790	          1.25100740	          0.09614447	          0.00000000	          0.03058110	          0.00000000	          0.00000000	          0.00000000	          0.00000000	         -0.05597101	          0.00000000	
          2.47000000	          0.00000000	          0.00000000	         -0.00000000	         -0.00000000	          0.00000000	         -0.00000000	          0.43533992	          5.71779348	          1.17886897	          0.09069919	          0.00000000	          0.02881985	          0.00000000	          0.00000000	          0.00000000	          0.00000000	         -0.05184983	          0.00000000	
          2.47100000	          0.00000000	          0.00000000	         -0.00000000	         -0.00000000	          0.00000000	         -0.00000000	          0.10243223	          4.45564984	          1.10840938	          0.08537416	          0.00000000	          0.02709944	          0.00000000	          0.00000000	          0.00000000	          0.00000000	         -0.04788312	          0.00000000	
          2.47200000	          0.00000000	          0.00000000	         -0.00000000	         -0.00000000	          0.00000000	         -0.00000000	         -0.20255732	          3.28398204	          1.03975213	          0.08017927	          0.00000000	          0.02542291	          0.00000000	          0.00000000	          0.00000000	          0.00000000	         -0.04407273	          0.00000000	
          2.47300000	          0.00000000	          0.00000000	         -0.00000000	         -0.00000000	          0.00000000	         -0.00000000	         -0.48084998	          2.19952492	          0.97300343	          0.07512310	          0.00000000	          0.02379286	          0.00000000	          0.00000000	          0.00000000	          0.00000000	         -0.04041978	          0.00000000	
          2.47400000	          0.00000000	          0.00000000	         -0.00000000	         -0.00000000	          0.00000000	         -0.00000000	         -0.73366401	          1.19896137	          0.90825323	          0.07021295	          0.00000000	          0.02221150	          0.00000000	          0.00000000	          0.00000000	          0.00000000	         -0.03692469	          0.00000000	
          2.47500000	          0.00000000	          0.00000000	         -0.00000000	         -0.00000000	          0.00000000	         -0.00000000	         -0.96221040	          0.27893930	          0.84557628	          0.06545496	          0.00000000	          0.02068065	          0.00000000	          0.00000000	          0.00000000	          0.00000000	         -0.03358723	          0.00000000	
          2.47600000	          0.00000000	          0.00000000	         -0.00000000	         -0.00000000	          0.00000000	         -0.00000000	         -1.16768885	         -0.56391271	          0.78503315	          0.06085418	          0.00000000	          0.01920182	          0.00000000	          0.00000000	          0.00000000	          0.00000000	         -0.03040661	          0.00000000	
          2.47700000	          0.00000000	          0.00000000	         -0.00000000	         -0.00000000	          0.00000000	         -0.00000000	         -1.35128425	         -1.33297103	          0.72667119	          0.05641462	          0.00000000	          0.01777617	          0.00000000	          0.00000000	          0.00000000	          0.00000000	         -0.02738153	          0.00000000	
          2.47800000	          0.00000000	          0.00000000	         -0.00000000	         -0.00000000	          0.00000000	         -0.00000000	         -1.51416341	         -2.03160383	          0.67052549	          0.05213935	          0.00000000	          0.01640455	          0.00000000	          0.00000000	          0.00000000	          0.00000000	         -0.02451018	          0.00000000	
          2.47900000	          0.00000000	          0.00000000	         -0.00000000	         -0.00000000	          0.00000000	         -0.00000000	         -1.65747223	         -2.66315900	          0.61661977	          0.04803057	          0.00000000	          0.01508757	          0.00000000	          0.00000000	          0.00000000	          0.00000000	         -0.02179035	          0.00000000	
          2.48000000	          0.00000000	          0.00000000	         -0.00000000	         -0.00000000	          0.00000000	         -0.00000000	         -1.78233314	         -3.23095325	          0.56496727	          0.04408963	          0.00000000	          0.01382556	          0.00000000	          0.00000000	          0.00000000	          0.00000000	         -0.01921943	          0.00000000	
          2.48100000	          0.00000000	          0.00000000	         -0.00000000	         -0.00000000	          0.00000000	         -0.00000000	         -1.88984283	         -3.73826226	          0.51557161	          0.04031716	          0.00000000	          0.01261860	          0.00000000	          0.00000000	          0.00000000	          0.00000000	         -0.01679447	          0.00000000	
          2.48200000	          0.00000000	          0.00000000	         -0.00000000	         -0.00000000	          0.00000000	         -0.00000000	         -1.98107033	         -4.18831171	          0.46842754	          0.03671309	          0.00000000	          0.01146657	          0.00000000	          0.00000000	          0.00000000	          0.00000000	         -0.01451224	          0.00000000	
          2.48300000	          0.00000000	          0.00000000	         -0.00000000	         -0.00000000	          0.00000000	         -0.00000000	         -2.05705527	         -4.58426943	          0.42352179	          0.03327673	          0.00000000	          0.01036917	          0.00000000	          0.00000000	          0.00000000	          0.00000000	         -0.01236920	          0.00000000	
          2.48400000	          0.00000000	          0.00000000	         -0.00000000	         -0.00000000	          0.00000000	         -0.00000000	         -2.11880653	         -4.92923829	          0.38083371	          0.03000680	          0.00000000	          0.00932589	          0.00000000	          0.00000000	          0.00000000	          0.00000000	         -0.01036164	          0.00000000	
          2.48500000	         -0.00000000	          0.00000000	         -0.00000000	         -0.00000000	          0.00000000	         -0.00000000	         -2.16730096	         -5.22625002	          0.34033607	          0.02690150	          0.00000000	          0.00833608	          0.00000000	          0.00000000	          0.00000000	          0.00000000	         -0.00848562	          0.00000000	
